<svg width="209" height="61" viewBox="0 0 209 61" fill="none" xmlns="http://www.w3.org/2000/svg">
<path opacity="0.5" d="M64.2033 0.410504L48.5243 55.9541C48.4445 56.2062 48.1257 56.2819 47.9396 56.1054L37.4427 46.1464L45.3087 18.3115C45.3885 18.0594 45.1493 17.8325 44.8836 17.9081L15.5452 25.3711L5.10138 15.4625C4.91536 15.286 4.99508 14.9834 5.26083 14.9078L63.7781 0.00710022C64.0438 -0.0433252 64.283 0.183589 64.2033 0.410504Z" fill="#00B37E"/>
<path opacity="0.5" d="M37.3058 46.1459L33.2665 60.5171C33.1868 60.7693 32.8679 60.8449 32.6818 60.6684L0.101381 29.7828C-0.0846408 29.6063 -0.00491742 29.3038 0.260829 29.2282L15.4084 25.3706L37.3058 46.1459Z" fill="#00B37E"/>
<path d="M44.9843 18.4144L37.0599 46L15 25.4108L44.556 18.0146C44.8237 17.9397 45.0646 18.1646 44.9843 18.4144Z" fill="#00B37E"/>
<path d="M85.819 20.6927V38.8823H82.0836V20.6927H85.819ZM97.6622 25.3651H100.923V38.4326C100.923 39.6652 100.648 40.7104 100.098 41.5683C99.5569 42.4344 98.799 43.0882 97.8246 43.5296C96.8501 43.9794 95.7175 44.2042 94.4265 44.2042C93.8602 44.2042 93.2605 44.1293 92.6276 43.9794C92.0029 43.8295 91.4033 43.5963 90.8286 43.2798C90.2623 42.9633 89.7875 42.5635 89.4044 42.0805L90.991 39.9567C91.4074 40.4397 91.8905 40.8145 92.4402 41.081C92.9899 41.3559 93.5978 41.4933 94.2641 41.4933C94.9138 41.4933 95.4634 41.3725 95.9132 41.131C96.3629 40.8978 96.7086 40.5522 96.9501 40.0941C97.1916 39.6444 97.3124 39.0988 97.3124 38.4575V28.4883L97.6622 25.3651ZM88.5674 32.2861V32.0237C88.5674 30.991 88.6923 30.054 88.9422 29.2128C89.2004 28.3633 89.5627 27.6346 90.0291 27.0266C90.5038 26.4186 91.0785 25.948 91.7531 25.6149C92.4277 25.2818 93.1897 25.1152 94.0393 25.1152C94.9387 25.1152 95.6925 25.2818 96.3005 25.6149C96.9084 25.948 97.4082 26.4228 97.7996 27.0391C98.191 27.6471 98.495 28.3675 98.7116 29.2004C98.9364 30.0249 99.1113 30.9285 99.2363 31.9113V32.486C99.1113 33.4271 98.924 34.3016 98.6741 35.1095C98.4242 35.9173 98.0953 36.6253 97.6872 37.2332C97.2791 37.8329 96.771 38.2993 96.163 38.6324C95.5634 38.9656 94.8471 39.1322 94.0143 39.1322C93.1814 39.1322 92.4277 38.9614 91.7531 38.6199C91.0868 38.2785 90.5163 37.7996 90.0415 37.1833C89.5668 36.567 89.2004 35.8424 88.9422 35.0095C88.6923 34.1767 88.5674 33.2689 88.5674 32.2861ZM92.1653 32.0237V32.2861C92.1653 32.8441 92.2195 33.3646 92.3277 33.8477C92.436 34.3307 92.6026 34.7597 92.8274 35.1344C93.0606 35.5009 93.348 35.7882 93.6895 35.9965C94.0393 36.1963 94.4515 36.2963 94.9262 36.2963C95.5842 36.2963 96.1214 36.1589 96.5378 35.884C96.9542 35.6008 97.2666 35.2136 97.4748 34.7222C97.683 34.2308 97.8038 33.6645 97.8371 33.0232V31.3866C97.8204 30.8619 97.7496 30.3913 97.6247 29.9749C97.4998 29.5502 97.3249 29.1879 97.1 28.888C96.8751 28.5882 96.5836 28.355 96.2255 28.1884C95.8674 28.0219 95.4426 27.9386 94.9512 27.9386C94.4765 27.9386 94.0642 28.0468 93.7144 28.2634C93.373 28.4716 93.0856 28.7589 92.8524 29.1254C92.6276 29.4919 92.4568 29.9249 92.3402 30.4246C92.2236 30.916 92.1653 31.4491 92.1653 32.0237ZM107.244 28.2509V38.8823H103.646V25.3651H107.019L107.244 28.2509ZM106.719 31.6489H105.745C105.745 30.6495 105.874 29.75 106.132 28.9505C106.391 28.1426 106.753 27.4555 107.219 26.8892C107.686 26.3145 108.239 25.8773 108.881 25.5774C109.53 25.2693 110.255 25.1152 111.054 25.1152C111.687 25.1152 112.266 25.2068 112.791 25.39C113.316 25.5733 113.765 25.8648 114.14 26.2645C114.523 26.6643 114.815 27.1932 115.015 27.8511C115.223 28.5091 115.327 29.3128 115.327 30.2622V38.8823H111.704V30.2497C111.704 29.6501 111.621 29.1837 111.454 28.8506C111.288 28.5174 111.042 28.2842 110.717 28.151C110.401 28.0094 110.009 27.9386 109.543 27.9386C109.06 27.9386 108.639 28.0344 108.281 28.2259C107.931 28.4175 107.64 28.684 107.407 29.0255C107.182 29.3586 107.011 29.75 106.894 30.1998C106.778 30.6495 106.719 31.1326 106.719 31.6489ZM121.861 25.3651V38.8823H118.25V25.3651H121.861ZM118.025 21.8421C118.025 21.3174 118.209 20.8843 118.575 20.5428C118.942 20.2013 119.433 20.0306 120.049 20.0306C120.657 20.0306 121.145 20.2013 121.511 20.5428C121.886 20.8843 122.073 21.3174 122.073 21.8421C122.073 22.3668 121.886 22.7999 121.511 23.1413C121.145 23.4828 120.657 23.6535 120.049 23.6535C119.433 23.6535 118.942 23.4828 118.575 23.1413C118.209 22.7999 118.025 22.3668 118.025 21.8421ZM131.455 25.3651V27.9136H123.585V25.3651H131.455ZM125.534 22.0295H129.132V34.8096C129.132 35.2011 129.182 35.5009 129.282 35.7091C129.39 35.9173 129.548 36.0631 129.756 36.1464C129.964 36.2213 130.227 36.2588 130.543 36.2588C130.768 36.2588 130.968 36.2505 131.143 36.2338C131.326 36.2088 131.48 36.1838 131.605 36.1589L131.618 38.8073C131.31 38.9073 130.976 38.9864 130.618 39.0447C130.26 39.103 129.865 39.1322 129.431 39.1322C128.64 39.1322 127.949 39.0031 127.358 38.7449C126.775 38.4784 126.325 38.0536 126.008 37.4706C125.692 36.8876 125.534 36.1214 125.534 35.1719V22.0295ZM139.726 39.1322C138.676 39.1322 137.735 38.9656 136.902 38.6324C136.069 38.291 135.361 37.8204 134.778 37.2208C134.204 36.6211 133.762 35.9257 133.454 35.1344C133.146 34.3349 132.992 33.4854 132.992 32.5859V32.0862C132.992 31.0618 133.138 30.1248 133.429 29.2753C133.721 28.4258 134.137 27.6887 134.678 27.0641C135.228 26.4394 135.894 25.9605 136.677 25.6274C137.46 25.2859 138.343 25.1152 139.326 25.1152C140.284 25.1152 141.133 25.2734 141.874 25.5899C142.616 25.9064 143.236 26.3561 143.736 26.9391C144.244 27.5221 144.627 28.2217 144.885 29.0379C145.143 29.8458 145.272 30.7453 145.272 31.7364V33.2355H134.529V30.8369H141.737V30.5621C141.737 30.0624 141.645 29.6168 141.462 29.2253C141.287 28.8256 141.021 28.5091 140.663 28.2759C140.304 28.0427 139.846 27.9261 139.288 27.9261C138.814 27.9261 138.405 28.0302 138.064 28.2384C137.723 28.4466 137.444 28.7381 137.227 29.1129C137.019 29.4877 136.861 29.9291 136.752 30.4371C136.652 30.9369 136.602 31.4865 136.602 32.0862V32.5859C136.602 33.1273 136.677 33.627 136.827 34.085C136.985 34.5431 137.206 34.9387 137.489 35.2719C137.781 35.605 138.131 35.8632 138.539 36.0464C138.955 36.2297 139.426 36.3213 139.95 36.3213C140.6 36.3213 141.204 36.1963 141.762 35.9465C142.328 35.6883 142.815 35.301 143.224 34.7846L144.973 36.6836C144.689 37.0917 144.302 37.4831 143.811 37.8579C143.328 38.2327 142.745 38.5408 142.062 38.7824C141.379 39.0156 140.6 39.1322 139.726 39.1322ZM157.665 20.6927V38.8823H153.917V20.6927H157.665ZM164.911 28.4633V31.3866H156.641V28.4633H164.911ZM165.786 20.6927V23.6285H156.641V20.6927H165.786ZM173.681 39.1322C172.632 39.1322 171.691 38.9656 170.858 38.6324C170.025 38.291 169.317 37.8204 168.734 37.2208C168.159 36.6211 167.718 35.9257 167.41 35.1344C167.102 34.3349 166.947 33.4854 166.947 32.5859V32.0862C166.947 31.0618 167.093 30.1248 167.385 29.2753C167.676 28.4258 168.093 27.6887 168.634 27.0641C169.184 26.4394 169.85 25.9605 170.633 25.6274C171.416 25.2859 172.299 25.1152 173.281 25.1152C174.239 25.1152 175.089 25.2734 175.83 25.5899C176.571 25.9064 177.192 26.3561 177.691 26.9391C178.199 27.5221 178.582 28.2217 178.841 29.0379C179.099 29.8458 179.228 30.7453 179.228 31.7364V33.2355H168.484V30.8369H175.692V30.5621C175.692 30.0624 175.601 29.6168 175.418 29.2253C175.243 28.8256 174.976 28.5091 174.618 28.2759C174.26 28.0427 173.802 27.9261 173.244 27.9261C172.769 27.9261 172.361 28.0302 172.02 28.2384C171.678 28.4466 171.399 28.7381 171.183 29.1129C170.974 29.4877 170.816 29.9291 170.708 30.4371C170.608 30.9369 170.558 31.4865 170.558 32.0862V32.5859C170.558 33.1273 170.633 33.627 170.783 34.085C170.941 34.5431 171.162 34.9387 171.445 35.2719C171.736 35.605 172.086 35.8632 172.494 36.0464C172.911 36.2297 173.381 36.3213 173.906 36.3213C174.556 36.3213 175.159 36.1963 175.717 35.9465C176.284 35.6883 176.771 35.301 177.179 34.7846L178.928 36.6836C178.645 37.0917 178.258 37.4831 177.766 37.8579C177.283 38.2327 176.7 38.5408 176.017 38.7824C175.334 39.0156 174.556 39.1322 173.681 39.1322ZM187.498 39.1322C186.449 39.1322 185.508 38.9656 184.675 38.6324C183.842 38.291 183.134 37.8204 182.551 37.2208C181.976 36.6211 181.535 35.9257 181.227 35.1344C180.919 34.3349 180.765 33.4854 180.765 32.5859V32.0862C180.765 31.0618 180.91 30.1248 181.202 29.2753C181.493 28.4258 181.91 27.6887 182.451 27.0641C183.001 26.4394 183.667 25.9605 184.45 25.6274C185.233 25.2859 186.116 25.1152 187.098 25.1152C188.056 25.1152 188.906 25.2734 189.647 25.5899C190.388 25.9064 191.009 26.3561 191.508 26.9391C192.016 27.5221 192.4 28.2217 192.658 29.0379C192.916 29.8458 193.045 30.7453 193.045 31.7364V33.2355H182.301V30.8369H189.509V30.5621C189.509 30.0624 189.418 29.6168 189.235 29.2253C189.06 28.8256 188.793 28.5091 188.435 28.2759C188.077 28.0427 187.619 27.9261 187.061 27.9261C186.586 27.9261 186.178 28.0302 185.837 28.2384C185.495 28.4466 185.216 28.7381 185 29.1129C184.791 29.4877 184.633 29.9291 184.525 30.4371C184.425 30.9369 184.375 31.4865 184.375 32.0862V32.5859C184.375 33.1273 184.45 33.627 184.6 34.085C184.758 34.5431 184.979 34.9387 185.262 35.2719C185.553 35.605 185.903 35.8632 186.311 36.0464C186.728 36.2297 187.198 36.3213 187.723 36.3213C188.373 36.3213 188.976 36.1963 189.534 35.9465C190.101 35.6883 190.588 35.301 190.996 34.7846L192.745 36.6836C192.462 37.0917 192.075 37.4831 191.583 37.8579C191.1 38.2327 190.517 38.5408 189.834 38.7824C189.151 39.0156 188.373 39.1322 187.498 39.1322ZM203.077 35.934V19.6933H206.7V38.8823H203.439L203.077 35.934ZM194.532 32.2861V32.0237C194.532 30.991 194.648 30.054 194.881 29.2128C195.115 28.3633 195.456 27.6346 195.906 27.0266C196.356 26.4186 196.909 25.948 197.567 25.6149C198.225 25.2818 198.975 25.1152 199.816 25.1152C200.607 25.1152 201.299 25.2818 201.89 25.6149C202.49 25.948 202.998 26.4228 203.414 27.0391C203.839 27.6471 204.18 28.3675 204.438 29.2004C204.697 30.0249 204.884 30.9285 205.001 31.9113V32.486C204.884 33.4271 204.697 34.3016 204.438 35.1095C204.18 35.9173 203.839 36.6253 203.414 37.2332C202.998 37.8329 202.49 38.2993 201.89 38.6324C201.29 38.9656 200.591 39.1322 199.791 39.1322C198.95 39.1322 198.2 38.9614 197.542 38.6199C196.893 38.2785 196.343 37.7996 195.893 37.1833C195.452 36.567 195.115 35.8424 194.881 35.0095C194.648 34.1767 194.532 33.2689 194.532 32.2861ZM198.13 32.0237V32.2861C198.13 32.8441 198.171 33.3646 198.254 33.8477C198.346 34.3307 198.492 34.7597 198.692 35.1344C198.9 35.5009 199.166 35.7882 199.491 35.9965C199.824 36.1963 200.228 36.2963 200.703 36.2963C201.319 36.2963 201.827 36.1589 202.227 35.884C202.627 35.6008 202.931 35.2136 203.139 34.7222C203.356 34.2308 203.481 33.6645 203.514 33.0232V31.3866C203.489 30.8619 203.414 30.3913 203.289 29.9749C203.172 29.5502 202.998 29.1879 202.764 28.888C202.54 28.5882 202.256 28.355 201.915 28.1884C201.582 28.0219 201.186 27.9386 200.728 27.9386C200.262 27.9386 199.862 28.0468 199.529 28.2634C199.196 28.4716 198.925 28.7589 198.717 29.1254C198.517 29.4919 198.367 29.9249 198.267 30.4246C198.175 30.916 198.13 31.4491 198.13 32.0237Z" fill="#E1E1E6"/>
</svg>
